<?xml version="1.0" standalone="no"?><!DOCTYPE svg PUBLIC "-//W3C//DTD SVG 1.1//EN" "http://www.w3.org/Graphics/SVG/1.1/DTD/svg11.dtd"><svg class="icon" width="200px" height="200.00px" viewBox="0 0 1024 1024" version="1.1" xmlns="http://www.w3.org/2000/svg"><path fill="gold" d="M736.1536 36.224c-88.1408 0-169.8688 44.3776-224.1536 117.3376-53.696-72.96-136.0128-117.3376-224.1664-117.3376C129.0496 36.224 0.0384 177.4976 0.0384 350.8736c0 103.3216 46.1312 176.2944 83.4688 234.6752 108.0064 169.8816 380.032 380.608 391.7056 389.3632A58.7264 58.7264 0 0 0 512 987.776a58.688 58.688 0 0 0 36.7744-12.864c11.6864-8.7552 283.1232-220.0704 391.7056-389.3632 37.3632-58.3808 83.4816-131.3536 83.4816-234.6752 0-173.376-129.0112-314.6496-287.808-314.6496z m130.2016 547.5712c-99.84 140.1088-311.1552 300.0448-321.6512 307.648-9.9328 7.5904-21.6064 11.6608-32.704 11.6608a50.0224 50.0224 0 0 1-32.6912-11.6608c-10.5088-7.6032-217.7408-169.3056-321.6512-313.472-33.28-52.544-86.4-117.9392-86.4-210.1632 0-155.2896 86.4-264.448 228.2496-264.448 78.8224 0 164.6208 75.3152 212.5056 140.6848 48.4608-65.3696 133.6832-140.6848 212.4928-140.6848 142.4256 0 234.6624 109.1584 234.6624 264.448-0.0128 92.224-58.9696 164.0448-92.8128 215.9872z"  /></svg>