<?xml version="1.0" standalone="no"?><!DOCTYPE svg PUBLIC "-//W3C//DTD SVG 1.1//EN" "http://www.w3.org/Graphics/SVG/1.1/DTD/svg11.dtd"><svg class="icon" width="200px" height="175.04px" viewBox="0 0 1170 1024" version="1.1" xmlns="http://www.w3.org/2000/svg"><path fill="#f4ea2a" d="M906.971429 775.314286a190.171429 190.171429 0 1 0-380.342858 0 190.171429 190.171429 0 0 0 380.342858 0z m58.514285 0a248.685714 248.685714 0 1 1-497.371428 0 248.685714 248.685714 0 0 1 497.371428 0zM906.971429 292.571429v438.857142h58.514285V292.571429zM1170.285714 497.371429a204.8 204.8 0 0 1-204.8-204.8h-58.514285a263.314286 263.314286 0 0 0 263.314285 263.314285v-58.514285zM0 58.514286h936.228571V0H0zM0 321.828571h760.685714V263.314286H0zM0 585.142857h321.828571v-58.514286H0zM0 848.457143h321.828571v-58.514286H0z" /></svg>