<?xml version="1.0" standalone="no"?><!DOCTYPE svg PUBLIC "-//W3C//DTD SVG 1.1//EN" "http://www.w3.org/Graphics/SVG/1.1/DTD/svg11.dtd"><svg class="icon" width="200px" height="200.00px" viewBox="0 0 1024 1024" version="1.1" xmlns="http://www.w3.org/2000/svg"><path fill="#f4ea2a" d="M510.862 1021.713c-280.841 0-508.531-227.662-508.531-508.531 0-280.841 227.677-508.531 508.531-508.531 280.877 0 508.531 227.677 508.531 508.531 0 280.867-227.653 508.531-508.531 508.531zM510.862 99.993c-228.21 0-413.191 184.988-413.191 413.189s184.988 413.172 413.189 413.172 413.172-184.963 413.172-413.172-184.966-413.189-413.172-413.189zM653.881 640.324c0 26.336-21.344 47.665-47.661 47.665-26.292 0-47.617-21.285-47.68-47.568l-0.007 0 0-254.263 0.007 0c0-0.007 0-0.069 0-0.097 0-26.326 21.366-47.68 47.68-47.68 26.326 0 47.661 21.351 47.661 47.68 0 0.372-0.007 0.743-0.007 1.111l0 252.035c0.007 0.394 0.007 0.758 0.007 1.138zM463.178 640.324c0 26.336-21.33 47.665-47.665 47.665-26.287 0-47.617-21.285-47.68-47.568l-0.007 0 0-254.263 0.007 0c0-0.007 0-0.069 0-0.097 0-26.326 21.351-47.68 47.68-47.68 26.326 0 47.665 21.351 47.665 47.68 0 0.372-0.008 0.743-0.008 1.111l0 252.035c0.008 0.394 0.008 0.758 0.008 1.138z" /></svg>