<?xml version="1.0" standalone="no"?><!DOCTYPE svg PUBLIC "-//W3C//DTD SVG 1.1//EN" "http://www.w3.org/Graphics/SVG/1.1/DTD/svg11.dtd"><svg class="icon" width="200px" height="200.00px" viewBox="0 0 1024 1024" version="1.1" xmlns="http://www.w3.org/2000/svg"><path fill="#f4ea2a" d="M512 1024c-282.24 0-512-229.76-512-512s229.76-512 512-512 512 229.76 512 512-229.76 512-512 512zM512 64C264.96 64 64 264.96 64 512s200.96 448 448 448 448-200.96 448-448-200.96-448-448-448z m162.56 423.04L453.12 312.32a32.128 32.128 0 0 0-51.84 25.6v348.8c0 26.88 30.72 41.6 51.84 24.96l220.8-174.08c16.64-13.44 16.64-37.76 0.64-50.56z"  /></svg>