<?xml version="1.0" standalone="no"?><!DOCTYPE svg PUBLIC "-//W3C//DTD SVG 1.1//EN" "http://www.w3.org/Graphics/SVG/1.1/DTD/svg11.dtd"><svg class="icon" width="200px" height="200.00px" viewBox="0 0 1024 1024" version="1.1" xmlns="http://www.w3.org/2000/svg"><path fill="#333333" d="M631.200768 493.799424c-0.039936-0.04096-0.075776-0.083968-0.115712-0.123904-1.426432-1.439744-2.973696-2.675712-4.608-3.72224L375.805952 285.83424c-4.942848-6.662144-12.848128-11.010048-21.740544-11.058176-0.637952-0.003072-1.26976 0.022528-1.898496 0.06144-6.401024 0.252928-12.729344 2.840576-17.6128 7.774208-0.423936 0.429056-0.82432 0.872448-1.21344 1.323008-3.830784 4.3264-6.23616 9.899008-6.465536 16.09728-0.037888 0.728064-0.043008 1.458176-0.022528 2.187264l0.224256 422.310912c0.079872 14.876672 12.63104 27.001856 27.505664 27.080704 9.152512 0.049152 17.21344-4.475904 22.04672-11.429888L625.718272 536.369152c2.134016-1.184768 4.14208-2.683904 5.950464-4.509696 10.292224-10.411008 10.292224-27.27936 0-37.679104L631.200768 493.799424zM381.35296 666.996736l-0.164864-308.722688 189.197312 154.051584L381.35296 666.996736zM511.02208 4.277248c-281.655296 0-509.999104 228.330496-509.999104 509.997056 0 281.654272 228.343808 509.99808 509.999104 509.99808 281.667584 0 509.996032-228.343808 509.996032-509.99808C1021.018112 232.607744 792.690688 4.277248 511.02208 4.277248zM510.742528 968.51968c-251.493376 0-455.359488-203.879424-455.359488-455.3728 0-251.47904 203.866112-455.359488 455.359488-455.359488 251.4944 0 455.360512 203.880448 455.360512 455.359488C966.102016 764.640256 762.236928 968.51968 510.742528 968.51968zM666.862592 301.975552c-14.8736-0.078848-27.291648 11.501568-27.211776 26.376192l0.226304 368.978944c0.077824 14.874624 12.630016 27.001856 27.503616 27.07968 14.875648 0.079872 26.882048-11.912192 26.802176-26.801152l-0.226304-368.553984C693.876736 314.181632 681.750528 302.055424 666.862592 301.975552z" /></svg>