<?xml version="1.0" standalone="no"?><!DOCTYPE svg PUBLIC "-//W3C//DTD SVG 1.1//EN" "http://www.w3.org/Graphics/SVG/1.1/DTD/svg11.dtd"><svg class="icon" width="200px" height="160.00px" viewBox="0 0 1280 1024" version="1.1" xmlns="http://www.w3.org/2000/svg"><path fill="gold" d="M288.191 694.923c-9.489 0-18.978-5.271-23.722-14.761-8.962-18.45-16.869-37.955-23.195-57.46-4.745-13.706 3.163-28.466 16.869-33.211 13.706-4.745 28.466 3.163 33.211 16.869 5.798 16.869 12.652 34.266 20.559 50.08 6.326 13.179 1.054 28.993-11.598 35.319-4.218 2.109-8.434 3.163-12.125 3.163z"  /><path fill="#333333" d="M641.913 914.22c-59.041 0-116.501-12.125-170.271-35.846-51.661-23.195-98.051-55.351-137.06-96.996-10.016-10.543-9.489-27.412 1.054-37.428 10.543-10.016 27.412-9.489 37.428 1.054 34.266 36.373 74.329 64.841 119.664 84.873 46.917 21.086 96.996 31.63 148.658 31.63 98.578 0 190.83-38.482 260.942-108.067 69.585-69.585 108.067-162.364 108.067-260.942s-38.482-190.83-108.067-260.942c-69.585-69.057-162.364-107.54-260.415-107.54-98.578 0-190.83 38.482-260.942 108.067-69.585 69.585-108.067 162.364-108.067 260.942 0 14.761-11.598 26.357-26.357 26.357-14.761 0-26.357-11.598-26.357-26.357 0-56.933 11.07-112.284 33.211-163.946 21.086-50.08 51.661-95.415 90.144-133.898s83.818-69.057 133.898-90.144c52.189-22.141 107.012-33.211 163.946-33.211 56.933 0 112.284 11.07 163.946 33.211 50.08 21.086 95.415 51.661 133.898 90.144 38.482 38.482 69.057 83.818 90.144 133.898 22.141 52.189 33.211 107.012 33.211 163.946 0 56.933-11.07 112.284-33.211 163.946-21.086 50.08-51.661 95.415-90.144 133.898-38.482 38.482-83.818 69.057-133.898 90.144-51.661 22.141-106.485 33.211-163.419 33.211z"  /><path fill="#333333" d="M521.194 700.194c-4.745 0-8.962-1.054-13.179-3.69-7.907-4.745-13.179-13.179-13.179-22.668V311.68c0-9.489 5.271-17.923 13.179-22.668 8.434-4.745 18.45-4.745 26.357 0L848.03 470.354c7.907 4.745 13.179 13.179 13.179 22.668s-5.271 17.923-13.179 22.668L534.372 697.032c-3.69 2.109-8.434 3.163-13.179 3.163z"  /></svg>